# xmcd
#
# Track frame offsets:
#	150
#	15547
#	38952
#	61500
#	84645
#	108787
#	133627
#	148822
#	171717
#	195592
#
# Disc length: 2730 seconds
#
# Revision: 0
# Processed by: cddbd v1.5PL3 Copyright (c) Steve Scherf et al.
# Submitted via: dBpowerAMP V4.0
#
DISCID=850aa80a
DTITLE=Tom Principato - Not One Word
DYEAR=2000
DGENRE=Blues
TTITLE0=One Night in Hindustan
TTITLE1=Santana Claus
TTITLE2='67/'68
TTITLE3=Dark Is The Night
TTITLE4=Blue Groove
TTITLE5=Mi Solea
TTITLE6=Fallen Angels
TTITLE7=Slippin' Into Darkness
TTITLE8=Another Place, Another Time
TTITLE9=Until We Meet Again
EXTD=
EXTT0=
EXTT1=
EXTT2=
EXTT3=
EXTT4=
EXTT5=
EXTT6=
EXTT7=
EXTT8=
EXTT9=
PLAYORDER=
